<svg width="64" height="64" viewBox="0 0 64 64" fill="none" xmlns="http://www.w3.org/2000/svg"><path fill-rule="evenodd" clip-rule="evenodd" d="M15.7449 43.2347L29.4647 51.0581C30.7903 51.8139 32.4234 51.8139 33.749 51.0581L47.4688 43.2347C48.7944 42.4789 49.6109 41.0819 49.6109 39.5702V23.9235C49.6109 22.4118 48.7944 21.0149 47.4688 20.259L33.749 12.4357C32.4234 11.6798 30.7903 11.6798 29.4647 12.4357L15.7449 20.259C14.4193 21.0149 13.6028 22.4118 13.6028 23.9235V39.5702C13.6028 41.0819 14.4193 42.4789 15.7449 43.2347ZM34.7712 35.2052C31.8129 37.8455 32.2105 39.8573 34.1594 41.9872H34.1541C34.7074 42.5903 35.0473 43.3877 35.0473 44.2656C35.0473 46.1423 33.507 47.6636 31.6068 47.6636C29.7067 47.6636 28.1663 46.1423 28.1663 44.2656C28.1663 43.3877 28.5063 42.5903 29.0595 41.9872H29.0542C31.0032 39.8573 31.4008 37.8455 28.4425 35.2052H28.4505C27.4929 34.352 26.8874 33.1208 26.8874 31.7469C26.8874 30.3729 27.4929 29.1417 28.4505 28.2886H28.4425C31.4008 25.6482 31.0032 23.6365 29.0542 21.5065H29.0595C28.5063 20.9035 28.1663 20.106 28.1663 19.2282C28.1663 17.3515 29.7067 15.8302 31.6068 15.8302C33.507 15.8302 35.0473 17.3515 35.0473 19.2282C35.0473 20.106 34.7074 20.9035 34.1541 21.5065H34.1594C32.2105 23.6365 31.8128 25.6482 34.7712 28.2886H34.7632C35.7208 29.1417 36.3263 30.3729 36.3263 31.7469C36.3263 33.1208 35.7208 34.352 34.7632 35.2052H34.7712ZM24.7206 35.1379C23.6899 34.0116 23.1004 32.9175 23.2043 31.7469C23.1004 30.5762 23.6899 29.4822 24.7206 28.3558H24.7153C25.2685 27.7528 25.6084 26.9554 25.6084 26.0775C25.6084 24.2008 24.0681 22.6795 22.168 22.6795C20.2678 22.6795 18.7275 24.2008 18.7275 26.0775C18.7275 26.9554 19.0675 27.7528 19.6206 28.3558H19.6154C20.646 29.4822 21.2355 30.5762 21.1316 31.7469C21.2355 32.9175 20.646 34.0116 19.6154 35.1379H19.6206C19.0675 35.7409 18.7275 36.5384 18.7275 37.4162C18.7275 39.2929 20.2678 40.8143 22.168 40.8143C24.0681 40.8143 25.6084 39.2929 25.6084 37.4162C25.6084 36.5384 25.2685 35.7409 24.7153 35.1379H24.7206ZM42.0822 31.7469C41.9783 32.9175 42.5678 34.0116 43.5984 35.1379H43.5931C44.1464 35.7409 44.4863 36.5384 44.4863 37.4162C44.4863 39.2929 42.946 40.8143 41.0458 40.8143C39.1457 40.8143 37.6054 39.2929 37.6054 37.4162C37.6054 36.5384 37.9453 35.7409 38.4985 35.1379H38.4933C39.5239 34.0116 40.1134 32.9175 40.0095 31.7469C40.1134 30.5762 39.5239 29.4822 38.4933 28.3558H38.4985C37.9453 27.7528 37.6054 26.9554 37.6054 26.0775C37.6054 24.2008 39.1457 22.6795 41.0458 22.6795C42.946 22.6795 44.4863 24.2008 44.4863 26.0775C44.4863 26.9554 44.1464 27.7528 43.5931 28.3558H43.5984C42.5678 29.4822 41.9783 30.5762 42.0822 31.7469Z" fill="#C2D1D9"></path></svg>
